<svg width="1440" height="1174" viewBox="0 0 1440 1174" fill="none" xmlns="http://www.w3.org/2000/svg">
<path opacity="0.35" fill-rule="evenodd" clip-rule="evenodd" d="M285.514 398.066C273.894 332.605 272.603 264.347 326.589 212.754C351.784 188.684 383.633 171.584 415.839 156.092C439.535 144.692 464.005 135.076 481.702 116.387C498.099 99.0828 510.562 78.9909 526.392 61.2339C547.274 37.7021 572.259 17.3314 600.389 0.904711C670.899 -40.1938 756.674 -59.4158 838.735 -66.0835C878.459 -69.3241 921.55 -71.011 961.006 -62.1769C999.112 -53.6536 1036.79 -40.176 1071.83 -24.4611C1146.31 8.91307 1210.86 57.7891 1257.66 119.583C1289.75 161.969 1307.09 203.183 1265.54 246.181C1218.7 294.649 1145.25 321.391 1084.71 352.847C1043.19 374.422 996.649 395.571 988.893 441.419C982.716 477.901 977.7 512.527 961.721 547.011C937.94 597.875 902.973 643.951 858.895 682.505C818.585 717.629 767.588 747.434 709.929 728.673C664.246 713.784 628.802 680.428 588.889 656.58C544.407 629.945 495.536 615.26 444.073 603.451C397.824 592.797 354.276 576.425 324.384 541.666C318.266 534.563 311.841 526.83 307.124 518.884C301.105 508.745 301.572 498.694 300.391 487.33C297.312 457.338 290.767 427.693 285.514 398.066Z" stroke="#88A9F0"/>
<path opacity="0.35" fill-rule="evenodd" clip-rule="evenodd" d="M244.834 397.827C219.725 333.046 186.739 251.405 247.383 193.83C276.758 165.939 318.078 150.347 358.067 138.696C386.708 130.345 432.184 127.887 449.743 102.215C462.64 83.3218 464.426 57.2588 476.093 37.0171C492.124 9.18811 516.41 -13.7336 544.902 -31.6769C619.127 -78.4343 715.803 -96.5018 803.968 -101.675C995.534 -112.901 1190.45 -23.495 1292.96 123.601C1323.53 167.448 1362.98 214.116 1313.59 258.912C1259.66 307.782 1178.42 330.677 1114.06 365.401C1089.46 378.659 1058.12 394.597 1044.4 418.601C1036.15 433.03 1035.58 451.133 1035.21 467.018C1034.21 507.474 1030.45 543.858 1012.25 581.608C984.135 639.946 939.304 693.767 888.501 737.853C844.196 776.296 781.011 821.474 716.667 793.76C667.331 772.462 636.042 727.258 597.709 693.936C555.05 656.825 502.293 631.817 444.357 619.598C387.998 607.742 326.183 599.747 296.48 549.378C286.292 532.1 275.647 509.728 271.828 490.605C265.662 459.074 256.634 428.046 244.834 397.827Z" stroke="#88A9F0"/>
<path opacity="0.35" fill-rule="evenodd" clip-rule="evenodd" d="M208.121 395.282C172.843 335.989 93.7372 238.56 153.904 172.628C185.685 137.784 241.899 124.69 289.054 116.886C327.003 110.575 372.769 108.204 401.442 81.4479C422.517 61.7756 413.161 33.146 421.236 8.52015C431.257 -22.0092 454.259 -46.9902 482.524 -65.7659C561.511 -118.24 671.336 -134.344 766.353 -137.771C865.035 -141.321 973.767 -124.712 1066.63 -92.7621C1182.41 -52.9115 1269.16 22.5464 1329.82 118.103C1341.01 135.742 1351.18 153.843 1361.93 171.695C1369.15 183.671 1379.86 195.256 1385.55 207.853C1395.02 228.857 1383.86 246.026 1365.96 259.715C1340.22 279.423 1308.6 293.449 1279.25 308.239C1239.11 328.479 1198.09 348.356 1160.75 372.103C1135.66 388.082 1109.4 405.295 1100.43 433.019C1094.3 451.928 1093.03 471.956 1093.25 491.539C1093.72 533.529 1091.26 567.485 1069.35 605.942C1033.3 669.078 977.859 725.849 919.292 773.086C873.328 810.158 800.598 867.745 733.628 842.96C673.541 820.766 638.393 767.644 598.805 724.695C579.557 703.815 557.936 684.747 532.531 669.895C500.501 651.172 470.348 643.316 432.399 640.253C368.528 635.096 272.22 633.755 252.476 565.222C245.186 539.93 249.347 513.733 245.524 488.112C240.528 454.236 225.918 425.19 208.121 395.282Z" stroke="#88A9F0"/>
<path opacity="0.35" fill-rule="evenodd" clip-rule="evenodd" d="M181.801 392.328C146.17 346.882 103.526 303.947 72.9524 254.862C53.1184 223.073 33.6414 180.599 59.2273 146.965C88.1055 109.009 151.783 100.161 198.571 95.324C246.777 90.3454 304.326 86.1566 343.726 57.3765C356.261 48.2091 366.594 35.8468 368.518 21.044C370.373 6.84477 365.137 -7.35444 366.872 -21.8111C370.76 -54.2742 392.765 -81.0221 421.138 -100.422C505.065 -157.814 629.98 -170.575 731.242 -172.075C781.928 -172.82 834.091 -168.907 885.104 -166.102C951.3 -162.464 1017.6 -154.654 1080.73 -135.831C1214.95 -95.8249 1304.92 -7.09711 1367.75 103.311C1387.53 138.064 1402.66 175.665 1433.65 203.593C1449.63 218.015 1446.14 228.371 1429.8 241.523C1404.27 262.077 1373.12 277.785 1344.78 294.939C1304.46 319.335 1263.29 344.095 1227.64 373.319C1203.06 393.464 1185.62 412.873 1180.32 443.082C1176.54 464.62 1177.43 486.567 1175.16 508.239C1170.83 549.408 1156.03 590.266 1129.82 624.415C1108.99 651.483 1084.2 676.083 1058.57 699.538C1025.26 730.076 997.087 761.101 971.789 797.345C938.25 845.321 891.124 933.818 812.125 910.398C724.995 884.555 643.328 818.892 587.426 755.271C568.653 733.91 553.242 707.712 527.924 691.96C490.021 668.415 451.563 669.241 406.481 669.338C338.986 669.472 192.115 682.579 190.528 592.13C189.903 556.294 207.238 522.411 215.539 487.943C224.901 449.338 206.138 423.301 181.801 392.328Z" stroke="#88A9F0"/>
<path opacity="0.35" fill-rule="evenodd" clip-rule="evenodd" d="M156.89 387.249C110.222 337.04 53.9617 292.47 6.9561 241.443C-20.5582 211.561 -67.9412 161.325 -46.6625 119.197C-23.3186 72.9041 58.0526 71.6432 105.088 67.9134C161.07 63.4733 226.812 57.408 274.721 28.5026C289.873 19.3648 302.782 7.26976 308.253 -8.66151C314.111 -25.7117 307.707 -40.6306 306.873 -57.6985C305.125 -93.5039 329.015 -122.25 360.63 -141.99C405.312 -169.901 461.185 -183.097 513.959 -192.297C573.75 -202.674 634.533 -207.79 695.438 -207.572C753.644 -207.394 811.234 -208.548 869.5 -209.88C945.698 -211.656 1022.97 -208.788 1096.88 -190.681C1169.69 -172.832 1235.89 -139.38 1287.89 -90.1738C1338.62 -42.158 1372.85 16.5319 1402.83 76.3141C1419.84 110.246 1448.57 160.952 1489.14 178.091C1507.18 185.719 1524.89 185.196 1505.7 205.034C1481.55 230.014 1448.99 250.057 1421.01 271.423C1380.64 302.256 1339.27 333.692 1305.39 370.35C1283.75 393.758 1274.11 416.474 1275.6 446.783C1276.75 469.872 1281.98 492.721 1279.33 515.898C1273.15 570.299 1225.26 607.605 1182.92 642.345C1155.68 664.688 1130.81 681.729 1116.79 713.512C1100.21 751.075 1093.25 791.943 1082.17 830.945C1069.99 873.775 1055.93 918.327 1029.36 956.051C1005.71 989.636 976.946 1004.7 933.892 995.648C866.74 981.546 800.551 946.806 740.935 914.668C680.256 881.971 620.621 845.207 570.338 800.263C543.191 775.993 524.663 747.497 500.555 721.424C470.23 688.691 401.628 701.088 360.858 703.859C293.18 708.459 80.2249 742.879 99.8751 631.395C108.077 584.863 140.377 541.918 163.999 500.855C173.789 483.814 187.959 463.362 190.173 443.835C192.586 422.566 170.92 402.363 156.89 387.249Z" stroke="#88A9F0"/>
<path opacity="0.35" fill-rule="evenodd" clip-rule="evenodd" d="M142.524 387.203C83.9103 330.201 13.2958 283.372 -49.6294 230.031C-77.8434 206.114 -106.335 181.025 -127.834 151.849C-139.397 136.16 -151.677 116.41 -148.488 96.9089C-139.338 40.938 -31.1411 45.9932 12.5708 42.7149C77.5226 37.8996 152.141 33.0488 209.572 2.86889C247.194 -16.8986 261.301 -46.0924 254.277 -83.7439C246.737 -124.132 263.596 -153.45 301.963 -175.98C350.066 -204.206 410.785 -215.711 466.637 -223.884C533.928 -233.685 602.071 -238.029 670.235 -236.864C736.528 -235.727 800.755 -245.66 866.61 -252.119C953.925 -260.674 1044.04 -264.894 1130.37 -247.357C1205.54 -232.085 1273.43 -198.431 1324.32 -146.387C1377.48 -92.0684 1403.8 -23.6328 1446.96 36.4604C1473.89 73.9432 1511.43 123.526 1561.74 138.096C1578.52 142.956 1609.1 136.4 1595.69 160.307C1588.03 173.98 1573.7 185.974 1562.37 197.15C1544.07 215.212 1525.17 232.776 1506.56 250.589C1466.9 288.561 1424.43 327.34 1394.71 372.304C1357.26 428.914 1412.93 472.483 1406.14 529.884C1402.5 560.775 1378.48 585.428 1353.06 604.796C1336.62 617.341 1318.63 628.206 1300.26 638.343C1281.08 648.933 1258.38 657 1241.65 670.691C1217.81 690.174 1228.16 713.238 1232.63 738.425C1240.5 782.688 1242.22 827.651 1237.77 872.293C1232.33 927.011 1219.56 983.293 1192.67 1033.02C1182.21 1052.38 1168.96 1072.9 1149.28 1085.88C1129.6 1098.86 1109.24 1097.97 1086.69 1094.06C1019.8 1082.51 953.051 1055.64 889.599 1030.17C810.182 998.281 732.326 962.646 657.976 922.107C606.654 894.121 555.164 863.888 512.227 825.944C499.739 814.9 487.857 803.075 478.251 789.873C471.654 780.82 468.118 769.138 458.561 762.332C428.658 741.09 368.623 747.433 333.555 748.668C263.566 751.129 194.68 762.83 124.781 765.673C86.6324 767.227 26.8863 771.136 -1.12896 742.094C-27.4753 714.792 -3.61262 671.793 12.1336 645.486C43.0796 593.762 84.6554 547.679 121.92 499.598C137.239 479.812 154.028 459.112 163.953 436.519C172.775 416.387 157.545 401.817 142.524 387.203Z" stroke="#88A9F0"/>
<path opacity="0.35" fill-rule="evenodd" clip-rule="evenodd" d="M137.036 371.159C73.6474 306.644 -13.8416 258.661 -89.35 204.779C-127.248 177.727 -165.385 149.938 -198.071 117.715C-215.075 100.96 -236.307 79.7717 -239.583 56.4155C-248.338 -6.06597 -116.875 2.38278 -77.5281 0.0107422C-1.45395 -4.5912 84.4868 -8.08257 153.503 -39.9674C195.67 -59.459 216.435 -91.4505 208.554 -133.499C205.06 -152.155 199.62 -168.004 208.554 -186.323C217.607 -204.882 236.466 -217.977 255.564 -227.794C310.446 -256.027 378.649 -265.054 440.439 -271.779C512.926 -279.612 585.957 -282.67 658.944 -280.929C722.868 -279.428 786.485 -296.317 848.901 -307.448C931.586 -322.187 1015.77 -335.06 1100.38 -333.114C1167.2 -331.568 1234.55 -319.424 1291.68 -287.148C1349.73 -254.277 1384.63 -205.078 1416.09 -151.986C1463.66 -71.728 1522.94 35.8224 1627.29 66.3036C1642.47 70.7456 1656.61 71.2342 1672.27 72.0071C1679.87 72.3802 1689.69 72.4958 1693.46 79.5941C1702.53 96.687 1668.99 129.824 1659.63 141.374C1629.75 178.242 1597.36 213.45 1566.74 249.83C1538.15 283.794 1507.02 319.188 1489.26 358.988C1461 422.376 1551.35 459.44 1548.81 519.843C1547.24 557.342 1507.12 584.235 1475.36 602.838C1436.25 625.714 1379.94 640.755 1360.37 682.501C1345.78 713.595 1368.66 731.692 1386.28 755.288C1416.14 795.266 1418.18 849.459 1415.07 895.736C1410.88 958.271 1394.51 1021.73 1366.65 1079.21C1354.02 1105.27 1338.56 1132.37 1315.79 1152.61C1294.46 1171.58 1274.27 1176.44 1245.76 1172.55C1158.49 1160.65 1070.37 1127.47 986.686 1097.83C881.538 1060.59 777.839 1019.47 677.238 973.214C608.638 941.666 538.49 908.289 478.278 864.704C462.584 853.341 446.514 840.992 435.039 826.005C426.364 814.74 422.681 805.438 408.06 799.006C364.722 779.95 304.441 784.934 258.006 786.915C183.758 790.069 109.868 798.464 36.0768 806.025C-6.98292 810.467 -88.0994 824.441 -122.484 790.922C-152.163 761.978 -116.349 712.627 -98.0553 687.13C-51.7795 622.649 7.74763 566.058 62.9768 507.787C88.2885 481.082 114.593 454.172 135.497 424.482C140.838 416.912 149.394 406.882 150.863 397.687C152.511 387.151 144.818 379.111 137.036 371.159Z" stroke="#88A9F0"/>
<path opacity="0.35" fill-rule="evenodd" clip-rule="evenodd" d="M105.971 387.812C82.7687 355.566 42.0609 331.732 8.27006 309.302C-40.357 277.012 -90.5123 246.516 -139.914 215.14C-186.625 185.47 -233.436 155.462 -276.695 121.768C-303.072 101.221 -336.169 76.6504 -348.663 46.2609C-375.765 -19.6083 -229.963 -9.61468 -193.969 -11.338C-104.485 -15.602 -3.03324 -16.5792 79.7519 -51.2593C131.445 -72.9166 152.683 -108.831 141.657 -158.693C137.846 -175.944 130.979 -190.673 139.672 -207.835C149.725 -227.698 172.848 -240.081 194.045 -248.822C260.446 -276.209 338.934 -282.028 410.912 -286.869C485.272 -291.87 562.748 -295.397 634.716 -291.737C663.495 -290.28 696.621 -298.551 725.103 -304.893C768.927 -314.665 812.304 -325.938 855.91 -336.42C944.53 -357.74 1035.45 -378.278 1127.65 -380.614C1194.21 -382.302 1263.6 -373.152 1318.98 -337.788C1375.1 -301.926 1400 -246.335 1431.12 -193.489C1484.87 -102.125 1557.46 8.96019 1681.81 28.2635C1700.66 31.1949 1718.78 29.6049 1737.62 30.3244C1747.3 30.6886 1758.33 31.8434 1763.24 40.3979C1775.99 62.606 1741.05 103.211 1729.29 120.223C1696.8 167.233 1660.27 211.942 1626.22 258.046C1599.18 294.654 1564.9 335.33 1554.44 378.725C1541.75 431.385 1624.68 468.854 1653.85 505.933C1704.41 570.23 1608.62 606.864 1561.39 637.52C1507.16 672.715 1462.39 736.923 1511.01 791.378C1529.6 812.2 1552.49 824.61 1560.79 851.784C1573.78 894.281 1563.96 942.846 1553.42 984.854C1537.54 1048.01 1512.42 1110.47 1478.26 1167.55C1453.78 1208.41 1413.19 1272.48 1353.73 1267.68C1313.71 1264.47 1273.02 1252.75 1234.05 1242.4C1175.7 1226.9 1118.08 1209.23 1060.77 1190.87C928.473 1148.63 797.637 1102.04 669.37 1050.8C581.851 1015.83 337.724 872.908 319.355 867.809C264.585 852.619 202.312 855.292 145.845 857.647C70.7311 860.773 -4.00588 868.875 -78.6832 876.381C-114.231 879.935 -149.957 884.278 -185.692 886.028C-211.127 887.272 -244.531 888.338 -266.81 875.093C-310.297 849.252 -261.848 790.125 -241.812 765.11C-180.433 688.421 -102.788 622.01 -29.9865 554.106C5.73951 520.768 42.0114 487.482 74.4427 451.47C87.5224 436.928 120.311 407.729 105.971 387.812Z" stroke="#88A9F0"/>
<path opacity="0.35" fill-rule="evenodd" clip-rule="evenodd" d="M78.9348 393.227C78.776 362.759 15.4107 328.497 -11.6565 310.833C-65.1756 275.895 -120.839 243.632 -175.986 210.854C-231.133 178.075 -286.428 145.386 -339.014 109.4C-373.159 86.0399 -413.278 59.7301 -436.435 26.3742C-485.765 -44.7093 -330.23 -34.1533 -289.942 -35.7083C-187.45 -39.6801 -69.8904 -37.8675 26.18 -74.8842C83.5304 -96.9823 106.399 -134.044 94.0815 -188.058C90.1112 -205.625 78.3592 -225.839 88.3146 -242.952C98.945 -261.23 123.402 -271.777 143.7 -278.849C217.735 -304.617 302.858 -307.603 381.191 -310.837C465.658 -314.391 550.919 -313.352 634.791 -313.627C670.355 -313.743 707.497 -325.178 741.363 -334.472C785.76 -346.654 829.632 -360.338 873.662 -373.568C970.526 -402.606 1070.34 -433.19 1172.82 -440.565C1237 -445.185 1307.14 -438.938 1357 -398.75C1382.03 -378.571 1395.14 -348.574 1409.61 -321.926C1427.13 -289.734 1443.95 -257.231 1462.6 -225.546C1522.68 -123.497 1608.46 -23.7752 1747.68 -18.7638C1768.75 -18.0085 1789.43 -20.4698 1810.4 -20.9318C1823.75 -21.2161 1835.63 -18.3283 1840.59 -5.82652C1853.07 25.5302 1813.85 75.0309 1797.77 99.9101C1762.56 154.369 1722.86 206.384 1685.67 259.75C1661.06 295.043 1618.47 343.273 1618.03 386.155C1617.63 424.362 1674.4 451.978 1705.31 470.797C1734.28 488.417 1786.75 513.074 1789.93 548.918C1791.47 566.298 1778.66 580.701 1765.29 591.879C1741.86 611.427 1714.86 625.217 1693.78 647.52C1659.21 684.11 1630.32 734.455 1635.02 783.76C1638.27 817.925 1660.05 840.298 1687.75 861.686C1699.4 870.678 1708.85 877.04 1709.46 891.638C1710.45 914.82 1700.31 939.353 1691.95 960.847C1662.06 1037.77 1619.59 1112.15 1572.36 1181.6C1548.76 1216.3 1523.26 1250.9 1491.96 1280.51C1471.46 1299.95 1443.82 1323.09 1412.56 1323.06C1376.36 1323.06 1338.05 1311.37 1302.87 1302.63C1237.15 1286.29 1172.23 1267.39 1107.56 1248.02C958.013 1203.18 809.873 1154.71 663.139 1102.61C559.783 1065.86 454.234 1029.04 357.062 980.173C338.111 970.576 320.224 959.386 303.642 946.755C285.924 933.489 263.939 927.553 241.646 923.128C103.283 895.663 -48.3021 916.749 -187.241 929.97C-222.507 933.32 -257.773 936.688 -293.138 939.033C-323.54 941.05 -359.938 946.835 -389.486 938.145C-447.71 921.04 -396.811 857.998 -375.293 832.31C-299.53 741.865 -201.782 665.344 -111.181 587.223C-68.1037 550.02 -24.6989 512.914 16.0359 473.605C37.247 453.169 79.0738 419.937 78.9348 393.227Z" stroke="#88A9F0"/>
</svg>
